<svg xmlns="http://www.w3.org/2000/svg" width="352" height="289" fill="none">
  <ellipse cx="136" cy="127.554" fill="#F3F3F3" rx="136" ry="127.554" transform="matrix(-1 0 0 1 302.869 16.89)"/>
  <path fill="#fff" fill-rule="evenodd" d="M280.738 200.181c.058-.034.424.449.965 1.4.544.949 1.22 2.389 1.849 4.248 1.288 3.705 2.097 9.174 1.617 15.138-.475 5.964-1.854 11.199-2.917 14.925-1.088 3.728-1.889 5.99-2.027 5.952-.153-.042.388-2.383 1.281-6.147.87-3.764 2.111-8.971 2.576-14.812.467-5.84-.198-11.155-1.267-14.83-1.038-3.693-2.249-5.785-2.077-5.874ZM284.411 170.334c.068-.03.511.78 1.25 2.275a210.106 210.106 0 0 1 3.002 6.389c2.434 5.435 5.71 13.043 8.087 21.876 1.168 4.418 1.964 8.713 2.367 12.658.406 3.944.448 7.527.244 10.517-.196 2.992-.574 5.393-.938 7.026-.359 1.636-.644 2.517-.708 2.502-.202-.039.688-3.639.877-9.563.234-5.912-.542-14.126-2.896-22.859-2.35-8.737-5.492-16.349-7.741-21.851l-2.682-6.522c-.619-1.547-.931-2.417-.862-2.448ZM148.425 205.365c.126.136-1.111 1.315-2.715 3.505-.399.55-.831 1.151-1.236 1.839-.443.661-.828 1.421-1.256 2.205a33.244 33.244 0 0 0-2.137 5.393 33.224 33.224 0 0 0-1.059 5.703c-.053.891-.13 1.74-.108 2.535a23.5 23.5 0 0 0 .068 2.216c.194 2.707.615 4.364.436 4.412-.109.037-.801-1.563-1.203-4.333a19.234 19.234 0 0 1-.205-2.276c-.062-.822-.018-1.701.01-2.628.125-1.846.433-3.87 1.014-5.931a29.21 29.21 0 0 1 2.296-5.562c.469-.8.898-1.568 1.388-2.23.452-.689.935-1.284 1.385-1.819 1.813-2.132 3.25-3.118 3.322-3.029ZM151.327 214.921c.092.146-.597.673-1.497 1.681-.456.497-.936 1.142-1.408 1.89a14.61 14.61 0 0 0-1.226 2.594 14.532 14.532 0 0 0-.634 2.8c-.089.879-.109 1.682-.057 2.356.087 1.348.306 2.188.143 2.247-.117.049-.607-.72-.907-2.145-.157-.71-.221-1.58-.18-2.543.063-.961.247-2.014.604-3.07.37-1.052.875-1.994 1.417-2.79.561-.784 1.148-1.428 1.709-1.891 1.114-.938 1.974-1.241 2.036-1.129ZM111.04 125.869c.056-.049.544.431 1.382 1.347.425.453.927 1.024 1.459 1.728.537.697 1.183 1.472 1.79 2.403l.982 1.442c.338.505.645 1.057.986 1.615.698 1.108 1.325 2.359 2.006 3.664a60.087 60.087 0 0 1 3.494 8.907 60.194 60.194 0 0 1 1.909 9.376c.137 1.466.291 2.856.307 4.165.016.654.059 1.284.05 1.892l-.041 1.744c-.003 1.113-.124 2.113-.196 2.991-.064.88-.175 1.631-.286 2.242-.205 1.225-.353 1.893-.428 1.883-.192-.026.17-2.739.14-7.124-.011-.548-.02-1.121-.03-1.72-.013-.598-.077-1.218-.112-1.86-.054-1.287-.24-2.651-.401-4.088a67.201 67.201 0 0 0-1.958-9.192 67.248 67.248 0 0 0-3.352-8.78c-.646-1.294-1.232-2.54-1.885-3.649-.32-.559-.604-1.114-.918-1.622l-.909-1.46c-2.358-3.697-4.138-5.778-3.989-5.904ZM123.387 130.978c.093-.083 1.345 1.089 2.938 3.347.801 1.124 1.646 2.54 2.468 4.174a37.278 37.278 0 0 1 2.168 5.535 37.24 37.24 0 0 1 1.188 5.827c.197 1.818.258 3.465.196 4.845-.111 2.76-.526 4.424-.648 4.405-.175-.021-.035-1.706-.124-4.406-.035-1.349-.174-2.952-.42-4.713a44.979 44.979 0 0 0-1.237-5.648 45.033 45.033 0 0 0-2.03-5.414c-.752-1.613-1.506-3.033-2.209-4.186-1.393-2.314-2.425-3.653-2.29-3.766Z" clip-rule="evenodd"/>
  <path fill="#22343D" fill-rule="evenodd" d="m80.15 220.206-.949-1.938-26.425 20.191 11.529 18.676 26.304-22.179-10.458-14.75Z" clip-rule="evenodd"/>
  <path fill="#D7D4D4" fill-rule="evenodd" d="m53.883 238.891 10.127 17.514.648-.289-9.019-16.376-1.756-.849Z" clip-rule="evenodd"/>
  <path fill="#F5F3F3" fill-rule="evenodd" d="M79.628 219.823 53.883 238.89s.108.41.747.662c.64.253 1.01.188 1.01.188l27.065-18.524s-1.56-.363-2.126-.785c-.566-.424-.951-.608-.951-.608Z" clip-rule="evenodd"/>
  <path fill="#FAB005" fill-rule="evenodd" d="m83.368 220.468-28.212 18.844 9.163 17.365 1.476 2.405 28.212-20.88s-2.971-4.435-4.755-7.113c-1.784-2.678-5.287-8.993-5.477-9.398-.191-.404-.407-1.223-.407-1.223Z" clip-rule="evenodd"/>
  <path fill="#22343D" fill-rule="evenodd" d="m316.02 90.374.797-1.627 22.19 16.954-9.681 15.684-22.089-18.625 8.783-12.386Z" clip-rule="evenodd"/>
  <path fill="#D7D4D4" fill-rule="evenodd" d="m338.078 106.064-8.504 14.707-.545-.242 7.574-13.752 1.475-.713Z" clip-rule="evenodd"/>
  <path fill="#F5F3F3" fill-rule="evenodd" d="m316.459 90.052 21.619 16.012s-.092.343-.627.555c-.538.212-.849.158-.849.158l-22.728-15.555s1.31-.304 1.786-.66c.475-.355.799-.51.799-.51Z" clip-rule="evenodd"/>
  <path fill="#4DADF7" fill-rule="evenodd" d="m313.319 90.595 23.69 15.823L329.315 121l-1.239 2.019-23.692-17.534s2.496-3.724 3.993-5.973c1.5-2.248 4.44-7.551 4.6-7.891.16-.339.342-1.026.342-1.026Z" clip-rule="evenodd"/>
  <path fill="#22343D" fill-rule="evenodd" d="M48.602 59.858s-1.676 1.16-.838 3.093 4.51 7.668 9.472 7.475c.204-.008-6.25-10.568-6.25-10.568h-2.384ZM41.011 165.584s-6.205-5.543-8.191-4.55c-2.427 1.213-16.318 14.823-15.775 21.235.223 2.627 3.28.377 8.727-5.274 5.45-5.65 12.31-3.229 12.31-3.229l2.93-8.182ZM56.087 174.932l-7.49-4.494S29.18 188.64 32.214 191.067c2.301 1.841 3.653.19 9.102-5.461 5.447-5.649 12.35-2.4 12.35-2.4l2.421-8.274Z" clip-rule="evenodd"/>
  <path fill="#F3A683" fill-rule="evenodd" d="m101.842 115.046 1.405 19.947-31.18-8.124 29.775-11.823Z" clip-rule="evenodd"/>
  <path fill="#112129" fill-rule="evenodd" d="M72.066 127.556s27.275 1.719 30.906.507c0 0 5.33 52.363-4.154 58.012-9.484 5.651-30.768-2.623-30.768-2.623l5.747-11.3 12.39-.807v-20.179l-.889.202-13.232-23.812Z" clip-rule="evenodd"/>
  <path fill="#22343D" fill-rule="evenodd" d="M37.877 163.273s-6.86 2.826-4.64 9.687c0 0 23.418 18.363 34.813 14.125 6.384-2.374 13.242-20.487 18.04-35.962l16.883-23.06s-7.963.398-10.62.388c-5.076-.019-20.286-.895-20.286-.895s-7.945 41.57-10.776 42.578c-2.831 1.008-23.413-6.861-23.413-6.861Z" clip-rule="evenodd"/>
  <path fill="#FFC6B2" fill-rule="evenodd" d="M78.422 75.418s16.346-15.337 19.17-19.373c2.825-4.036 8.88-17.556 16.344-23.206l-3.631-7.668s2.22-1.21 3.631 2.017c0 0 5.246-10.492 6.458-10.291 1.211.202-2.421 8.072-2.421 8.072s5.046-7.265 6.458-7.063c1.411.202-3.633 8.167-3.633 8.167s5.649-6.552 6.457-5.745c.807.807-4.439 5.745-4.439 5.745s5.65-3.244 6.255-2.175c.606 1.071-5.65 3.896-5.65 3.896s-.605 4.641-4.439 6.659c0 0-7.591 20.51-14.452 27.168L82.49 84.527l-4.068-9.11ZM58.91 83.367s-15.488 16.201-19.55 18.988c-4.063 2.785-17.638 8.715-23.357 16.127l-7.634-3.703s-1.23 2.207 1.984 3.65c0 0-10.542 5.148-10.35 6.361.19 1.213 8.093-2.346 8.093-2.346s-7.312 4.978-7.123 6.392c.19 1.413 8.2-3.557 8.2-3.557s-6.605 5.588-5.805 6.403c.799.815 5.787-4.384 5.787-4.384s-3.297 5.619-2.232 6.234c1.064.615 3.947-5.614 3.947-5.614s4.646-.56 6.7-4.376c0 0 19.426-7.729 26.15-14.528l24.174-17.13-8.984-8.517Z" clip-rule="evenodd"/>
  <path fill="#FAB005" fill-rule="evenodd" d="m64.716 76.91-7.833 7.668 1.986 8.644s7.718 18.528 8.884 23.048c1.814 7.028-1.12 17.745-1.12 17.745s13.084-1.086 24.988-1.49c11.904-.404 15.798-4.239 15.798-4.239S97.099 93.91 89.972 84.3c-7.127-9.608-9.719-12.615-9.719-12.615L69.76 73.978l-5.044 2.931Z" clip-rule="evenodd"/>
  <path fill="#22343D" fill-rule="evenodd" d="m87.706 83.167 8.161-5.215s1.247-5.587-8.596-12.178L75.73 73.007l11.975 10.16ZM58.533 83.971C54.059 84.6 45.882 95.94 44.97 95.918c0 0 5.754 9.391 10.313 9.696 0 0 20.06-24 3.25-21.643Z" clip-rule="evenodd"/>
  <path fill="#FFC6B2" fill-rule="evenodd" d="M74.329 76.592s-6.504-4.86-6.279-6.797c.058-.488.959-1.28 1.193-1.983 1.261-3.784-4.819-13.532-8.554-15.587-2.94-1.616-1.651-1.758-7.836 1.917-6.185 3.675-2.661 10.03.1 13.318 2.612 3.107 5.602 4.438 8.293 4.663l3.825 8.497 9.258-4.028Z" clip-rule="evenodd"/>
  <path fill="#FFC6B2" fill-rule="evenodd" d="M62.592 83.338c-1.23-3.018 1.1-6.819 5.204-8.492 4.105-1.675 8.428-.586 9.66 2.43 1.23 3.017-2.9 7.552-5.206 8.492-2.305.94-8.428.586-9.658-2.43ZM52.954 67.46s-2.11-.116-2.344 1.29c-.235 1.406 3.867 1.406 5.39.35l-3.046-1.64Z" clip-rule="evenodd"/>
  <path fill="#22343D" fill-rule="evenodd" d="M54.009 68.75c-.4-2.541-3.108-4.43-2.973-6.906 1.298.01 2.13-1.596 1.54-2.97-.232-.54-.626-1.002-.877-1.534s-.318-1.229.067-1.53c.183-.142.43-.166.666-.19 1.924-.198 5.22.38 6.99-.277 1.686-.625 3.492-1.84 3.317-3.905-.153-1.798-1.741-3.256-3.2-4.358-.836-.632-3.224-2.283-4.125-2.133-1.375.228-1.708 2.063-1.807 3.6-.962-.917-2.381-.77-3.218-.025-.836.745-1.232 1.93-1.597 3.072-.365 1.144-.751 2.331-1.577 3.091-.769.708-1.985 1.244-1.826 2.448.19 1.434 2.064 1.945 2.931 3.169-.213-.3-.394 1.616-.271 1.94.37.979 1.293 1.626 1.96 2.375 1.421 1.595 2.117 3.201 4 4.132Z" clip-rule="evenodd"/>
  <path fill="#fff" fill-rule="evenodd" d="m65.793 62.94-4.807 2.486s5.773 4.19 4.807-2.486Z" clip-rule="evenodd"/>
  <path fill="#FFB2A0" fill-rule="evenodd" d="M59.18 63.926c.263.498-.126 1.219-.868 1.61-.742.39-1.556.302-1.82-.196-.261-.499.127-1.218.87-1.61.742-.39 1.555-.303 1.818.196ZM66.199 59.132c.262.498-.126 1.219-.868 1.61-.743.39-1.557.302-1.82-.196-.262-.498.127-1.219.869-1.61.743-.39 1.556-.303 1.819.196Z" clip-rule="evenodd"/>
  <path fill="#22343D" fill-rule="evenodd" d="M62.438 62.764c-.023-.028.067-.146.275-.296.198-.153.544-.318.8-.594.254-.268.345-.826-.044-.904-.404-.138-.862.326-1.389.766l-.386.32c-.12.11-.37.27-.63.238-.496-.08-.707-.41-.898-.632a4.38 4.38 0 0 1-.746-1.444c-.258-.895-.142-1.473-.08-1.468.086-.004.115.551.443 1.339.165.391.412.835.771 1.255.176.213.396.411.553.418.066.003.118-.02.242-.123l.381-.32c.266-.215.495-.432.798-.634.294-.198.714-.323 1.09-.196.402.106.638.574.568.9-.045.331-.21.576-.398.755-.396.33-.75.41-.973.51-.228.087-.354.141-.377.11Z" clip-rule="evenodd"/>
  <path fill="#FFA192" fill-rule="evenodd" d="M61.245 72.123s3.066.018 4.73-1.007c0 0-1.408 1.728-4.223 2.176l-.507-1.169Z" clip-rule="evenodd"/>
  <path fill="#22343D" fill-rule="evenodd" d="M62.575 58.374c-.028.151-.456.198-.91.398-.459.186-.79.462-.918.376-.131-.07.085-.617.706-.878.62-.263 1.163-.039 1.122.104ZM56.566 62.315c-.116-.085.066-.58.508-1.074.446-.504 1.017-.673 1.077-.531.064.137-.284.457-.675.9-.398.443-.784.799-.91.705ZM54.238 61.553c-.249-.184-.442-.972.508-2.034.96-1.085 2.032-.894 2.16-.593.139.296-.218.718-1.06 1.673-.855.951-1.34 1.156-1.608.954ZM59.285 57.37c-.138-.257.014-1.005 1.25-1.526 1.254-.54 2.09.055 2.078.364-.002.307-.474.522-1.576.997-1.11.465-1.604.446-1.752.166ZM323.021 64.815c.081.08-1.251 1.579-4.015 3.21-2.729 1.63-7.023 3.247-11.963 3.283-4.94.037-9.258-1.516-12.011-3.106-2.786-1.59-4.14-3.07-4.061-3.151.115-.145 1.629 1.102 4.42 2.468 2.763 1.372 6.928 2.733 11.643 2.699 4.717-.036 8.861-1.458 11.604-2.87 2.769-1.407 4.266-2.677 4.383-2.533ZM292.886 62.552c-.076.166-1.55-.446-4.035-1-1.238-.292-2.74-.518-4.413-.726a144.652 144.652 0 0 0-5.496-.473c-1.961-.137-3.838-.295-5.543-.506-1.704-.226-3.236-.495-4.498-.837-2.533-.66-3.968-1.443-3.918-1.554.066-.166 1.574.349 4.083.8 1.252.24 2.762.424 4.444.592 1.685.154 3.547.28 5.511.418 1.965.14 3.845.32 5.548.564 1.702.268 3.229.579 4.478.976 2.509.766 3.895 1.642 3.839 1.746Z" clip-rule="evenodd"/>
  <mask id="a" width="99" height="49" x="253" y="20" maskUnits="userSpaceOnUse" style="mask-type:luminance">
    <path fill="#fff" fill-rule="evenodd" d="M253.052 20.505H352v48.48h-98.948v-48.48Z" clip-rule="evenodd"/>
  </mask>
  <g mask="url(#a)">
    <path fill="#22343D" fill-rule="evenodd" d="M263.005 30.325c4.709-1 9.588-.14 14.337.652 4.749.791 9.679 1.505 14.322.23 8.382-2.3 14.746-10.77 23.438-10.701 3.58.027 6.953 1.556 10.441 2.365 4.33 1.004 8.841.896 13.227 1.613 4.387.717 8.919 2.481 11.398 6.17 2.942 4.38 2.135 10.556-.951 14.833-3.087 4.279-8.029 6.884-13.094 8.36-3.532 1.03-7.296 1.625-10.353 3.673-3.092 2.072-5.111 5.407-7.992 7.764-7.229 5.911-18.48 4.217-25.947-1.391-1.876-1.409-3.615-3.044-5.723-4.075-8.574-4.196-20.904 1.36-28.288-6.277-7.499-7.754-6.43-20.753 5.185-23.216Z" clip-rule="evenodd"/>
  </g>
  <path fill="#FFB2A0" fill-rule="evenodd" d="M260.651 180.507s7.856 16.838 8.775 13.72c.917-3.119.613-10.607.121-11.676-.494-1.069-3.705-5.792-3.705-5.792l-5.191 3.748Z" clip-rule="evenodd"/>
  <path fill="#FFC6B2" fill-rule="evenodd" d="M317.453 44.353c.727.931.241-.069 1.064 1.274 3.421-.119 5.717-3.013 5.717-3.013s5.429.143 5.367-.826c-.062-.972-5.205-.61-5.205-.61s5.44-1.708 5.142-2.561c-.297-.853-6.578 1.867-6.578 1.867s6.338-3.935 5.402-4.566c-.936-.629-7.034 2.805-7.034 2.805s5.3-4.353 4.505-4.914c-.793-.561-8.144 5.105-8.144 5.105.107-2.788-1.892-2.69-1.892-2.69l.082 6.806s1.239.895 1.574 1.323ZM236.975 13.552c-1.162.214-.261-.19-1.769.27-2.477-2.362-2.148-6.074-2.148-6.074s-4.154-3.496-3.465-4.18c.693-.685 4.296 3.001 4.296 3.001s-2.932-4.89-2.143-5.33c.788-.44 3.681 5.763 3.681 5.763s-2.129-7.15-1.01-7c1.118.15 3.399 6.766 3.399 6.766s-1.073-6.773-.109-6.666c.966.107 2.703 9.225 2.703 9.225 1.77-2.156 3.199-.755 3.199-.755l-4.486 4.934s-1.614-.052-2.148.046ZM265.156 41.98c-1.503-.247-5.135 2.167-6.953 6.102-1.017 2.202-1.717 4.44-.55 8.021.55 1.685 1.701 1.896 1.958 2.651.325.956-.751 3.968-.751 3.968l4.288 1.731c.279-2.069.595-4.15 2.704-5.049.789-.336 1.633-.55 2.377-.976 2.009-1.152 3.082-3.67 3.907-5.733.616-1.54-3.214-10.098-6.98-10.716Z" clip-rule="evenodd"/>
  <path fill="#FFB2A0" fill-rule="evenodd" d="m260.051 100.458-7.184-2.882s-21.321 39.537-21.232 50.507c.088 10.969 29.282 32.932 29.282 32.932l4.924-4.256s-9.013-15.716-13.832-21.258c-4.819-5.543 8.042-55.043 8.042-55.043Z" clip-rule="evenodd"/>
  <path fill="#FFC6B2" fill-rule="evenodd" d="M295.72 145.497s15.834-7.512 12.653-8.176c-3.182-.66-10.623.25-11.648.828-1.026.578-5.472 4.162-5.472 4.162l4.467 3.186Z" clip-rule="evenodd"/>
  <path fill="#FFC6B2" fill-rule="evenodd" d="m267.108 100.115-10.899 3.966s-10.901 47.949-6.739 55.477c4.16 7.531 15.848 2.547 32.494-6.538l13.942-7.611-4.654-3.097s-16.224 3.179-20.78 6.349c0 0 2.377-6.737 5.548-16.248 3.17-9.511 5.356-19.22-8.912-32.298ZM253.693 67.449c0-3.186 1.026-5.49 4.211-5.49 3.186 0 7.59 1.117 7.59 4.303 0 3.188-2.51 8.361-5.698 8.361-3.185 0-6.103-3.987-6.103-7.174Z" clip-rule="evenodd"/>
  <path fill="#FFC6B2" fill-rule="evenodd" d="M256.209 61.503s-9.906-10.721-11.888-21.224c-1.982-10.5-5.349-27.541-5.349-27.541l-3.765 1.084s-1.784 23.288 0 26.854c1.783 3.567 10.496 27.311 13.149 33.547l7.853-12.72ZM266.852 69.858s.761-3.335 13.288-7.867c12.527-4.532 36.16-19.222 36.16-19.222l2.358 2.698S305.817 60.299 298.346 62.9c-7.47 2.602-23.337 12.86-24.97 13.68-2.469 1.243-2.439 2.806-6.524-6.723Z" clip-rule="evenodd"/>
  <path fill="#4DADF7" fill-rule="evenodd" d="M256.209 61.503s-10.064 3.262-10.064 18.577c0 0 .006 20.975 2.378 24.791 0 0 3.856.988 8.664 0 5.041-1.036 9.921-4.755 9.921-4.755l7.917-23.77-.947-11.136-10.765-2.079s3.088 14.431-8.084 8.227c-2.172-1.205 3.194-9.393 3.194-9.393l-2.214-.462Z" clip-rule="evenodd"/>
  <path fill="#22343D" fill-rule="evenodd" d="m247.693 73.959-4.96-10.333s.711-6.268 9.816-8.514c0 0 .921 3.16 1.93 4.366 1.009 1.207 3.947 2.49 3.947 2.49l-10.733 11.99ZM266.443 78.112l15.77-3.233s2.743-5.68-3.759-12.439c0 0-12.301.743-13.893.876-1.568.13-.492 1.337-.492 1.337l2.374 13.459Z" clip-rule="evenodd"/>
  <path fill="#4DADF7" fill-rule="evenodd" d="M248.498 99.762s-14.917 27.579-17.381 32.506c0 0 44.007 20.215 61.871-4.117 0 0-10.162-21.508-25.871-29.696l-6.777-2.03-11.577 3.204" clip-rule="evenodd"/>
  <path fill="#FFC6B2" fill-rule="evenodd" d="M271.559 52.434s1.699-1.7 2.744-.523c1.046 1.176-3.789 2.875-3.789 2.875l1.045-2.352Z" clip-rule="evenodd"/>
  <path fill="#22343D" fill-rule="evenodd" d="M302.639 29.26c.016.058-.64.342-1.893.64-1.25.3-3.105.574-5.409.62-2.302.046-5.04-.158-8.037-.565-2.999-.397-6.257-.981-9.685-1.355-3.422-.366-6.712-.433-9.627.038-2.915.462-5.438 1.417-7.366 2.532-1.929 1.124-3.271 2.371-4.095 3.315-.828.944-1.201 1.547-1.285 1.496-.046-.023.203-.703.954-1.761.746-1.056 2.062-2.449 4.026-3.708 1.962-1.252 4.569-2.327 7.6-2.866 3.034-.546 6.427-.503 9.909-.13 3.485.38 6.747.997 9.711 1.445 2.963.456 5.642.736 7.897.788 4.522.126 7.258-.676 7.3-.49ZM262.906 51.47c-.005.066-.489.113-1.228-.133a1.637 1.637 0 0 1-.599-.332.986.986 0 0 1-.248-.361.816.816 0 0 1 .006-.617c.024-.036.022-.12.069-.122l.143-.005c.092-.013.201.018.308.037.195.038.257.032.396.042.244.005.496-.02.749-.076 1.032-.217 1.722-.968 2.031-1.585.325-.622.354-1.09.44-1.084.061-.008.182.49-.086 1.24a3.142 3.142 0 0 1-.757 1.158 3.167 3.167 0 0 1-1.508.803c-.3.067-.6.092-.89.077a3.436 3.436 0 0 1-.383-.044c-.053-.01-.046-.021-.057-.015-.006.007-.009.017-.008.032a.52.52 0 0 0 .115.2c.11.125.27.218.427.296.638.314 1.092.406 1.08.488Z" clip-rule="evenodd"/>
  <path fill="#fff" fill-rule="evenodd" d="m259.368 51.653 5.81 2.289s-5.106 3.52-5.81-2.29Z" clip-rule="evenodd"/>
  <path fill="#FFB2A0" fill-rule="evenodd" d="M267.659 52.754c-.206.392-.846.46-1.429.154-.584-.307-.889-.873-.684-1.265.207-.392.847-.46 1.431-.154.583.307.888.873.682 1.265ZM261.175 49.316c-.177.407-.809.524-1.414.262-.605-.262-.953-.803-.777-1.21.176-.406.809-.523 1.414-.261.604.262.953.803.777 1.21Z" clip-rule="evenodd"/>
  <path fill="#FFA192" fill-rule="evenodd" d="M259.022 58.024s2.037 1.706 4.162 1.157c0 0-.733 1.098-3.553.695 0 0 .234-1.21-.609-1.852Z" clip-rule="evenodd"/>
  <path fill="#22343D" fill-rule="evenodd" d="M267.101 49.106a.46.46 0 1 1-.92 0 .46.46 0 0 1 .92 0ZM263.335 47.749a.46.46 0 1 1-.92 0 .46.46 0 0 1 .92 0ZM268.581 47.88c-.143.06-.417-.273-.833-.542-.407-.28-.82-.407-.819-.561-.014-.148.563-.267 1.122.108.56.373.672.95.53.994ZM261.942 45.646c-.01-.144.484-.325 1.146-.307.674.014 1.172.341 1.103.478-.064.138-.533.078-1.124.067-.595-.017-1.116-.081-1.125-.238ZM264.016 187.349s2.416 8.578 4.911 7.875c2.496-.701.62-12.673.62-12.673l-2.49-3.935s2.339 20.039-3.041 8.733ZM294.489 139.794s1.757-1.917 3.888-2.237c2.13-.319 9.745-1.225 10.864-.213 1.119 1.012-6.172 4.405-6.172 4.405s2.54-1.619 1.485-2.221c-1.864-1.066-10.065.266-10.065.266ZM291.468 142.09l2.384 4.841 1.301-.722-3.18-4.769-.505.65ZM264.808 174.818l-5.852 5.275 1.734 1.445 4.913-5.347-.795-1.373ZM142.457 122.308c-1.665-4.13-2.304-8.728-4.788-12.424-3.573-5.319-10.438-7.958-13.338-13.672-1.231-2.427-1.618-5.203-1.631-7.925-.023-5.384 1.589-11.108 5.747-14.529 4.779-3.932 11.948-3.877 17.545-1.236 5.595 2.642 9.871 7.436 13.506 12.444 3.635 5.007 6.818 10.381 11.051 14.894 3.139 3.346 6.862 6.232 9.226 10.163 6.482 10.777-.187 24.412-11.63 28.302-10.055 3.417-22.21-7.382-25.688-16.017Z" clip-rule="evenodd"/>
  <path fill="#FFC6B2" fill-rule="evenodd" d="M128.133 198.317c.995.818-.091.251 1.357 1.194-.323 3.617-3.668 5.895-3.668 5.895s-.142 5.758-1.216 5.64c-1.077-.117-.387-5.545-.387-5.545s-2.203 5.672-3.135 5.311c-.93-.36 2.441-6.868 2.441-6.868s-4.725 6.504-5.375 5.479c-.648-1.025 3.51-7.301 3.51-7.301s-5.134 5.383-5.714 4.511c-.58-.869 6.127-8.355 6.127-8.355-3.104-.034-2.885-2.146-2.885-2.146l7.561.448s.926 1.359 1.384 1.737ZM200.357 89.722c1.294.227.29-.202 1.969.286 2.757-2.504 2.391-6.44 2.391-6.44s4.624-3.708 3.857-4.433c-.771-.726-4.782 3.181-4.782 3.181s3.263-5.185 2.385-5.651c-.876-.466-4.096 6.112-4.096 6.112s2.369-7.582 1.123-7.424c-1.243.16-3.781 7.175-3.781 7.175s1.193-7.182.119-7.068c-1.074.113-2.812 9.521-2.812 9.521-2.532-2.06-4.304-.74-4.304-.74l5.541 5.432s1.796-.054 2.39.049ZM168.708 121.168c2.339-.365 9.471 4.257 7.656 13.644-.151.788-1.181 2.523-1.437 3.24-.324.909 2.199 4.235 2.199 4.235l-6.513 2.081c-.278-1.967.189-4.843-1.915-5.697-.788-.32-1.63-.523-2.373-.928-2.006-1.095-3.076-3.491-3.9-5.452-.615-1.466-1.084-3.043-1.066-4.633.043-4.005 3.59-5.902 7.349-6.49Z" clip-rule="evenodd"/>
  <path fill="#FFC6B2" fill-rule="evenodd" d="M181.751 146.876c0-3.379-1.072-4.669-4.618-4.669-3.546 0-8.227 1.29-8.227 4.669 0 3.379 2.504 7.608 6.052 7.608 3.545 0 6.793-4.229 6.793-7.608Z" clip-rule="evenodd"/>
  <path fill="#FFC6B2" fill-rule="evenodd" d="M178.95 140.57s11.026-11.369 13.232-22.505c2.206-11.136 5.954-29.206 5.954-29.206l4.19 1.15s1.986 24.695 0 28.476c-1.984 3.783-13.232 30.047-13.012 36.77L178.95 140.57ZM159.295 146.074s-3.749.63-9.483 13.658c-5.734 13.027-23.376 37.28-23.376 37.28l2.867 2.64s17.201-12.816 20.509-20.59c3.307-7.773 7.498-17.439 9.483-17.019 1.985.421 10.365-11.137 0-15.969Z" clip-rule="evenodd"/>
  <path fill="#22343D" fill-rule="evenodd" d="m188.815 156.992 5.134-14.17s-.792-6.646-10.925-9.029l-5.741 8.271 11.532 14.928ZM161.008 144.987s-6.058.51-10.967 11.294c0 0 5.399 7.454 9.349 7.705 0 0 14.671-12.54 1.618-18.999Z" clip-rule="evenodd"/>
  <path fill="#FFC6B2" fill-rule="evenodd" d="M177.65 272.866s-8.744 17.855-9.766 14.549c-1.021-3.307-.683-11.248-.136-12.382.55-1.134 4.125-6.142 4.125-6.142l5.777 3.975Z" clip-rule="evenodd"/>
  <path fill="#22343D" fill-rule="evenodd" d="m178.318 187.98 7.996-3.057s23.73 41.928 23.632 53.56c-.099 11.631-32.592 34.922-32.592 34.922l-5.481-4.514s15.401-22.644 20.764-28.521c2.682-2.938-16.516-17.34-19.424-31.197-2.908-13.858 5.105-21.193 5.105-21.193Z" clip-rule="evenodd"/>
  <path fill="#FFC6B2" fill-rule="evenodd" d="M130.243 263.512s-16.356 12.056-15.675 8.673c.682-3.387 4.799-10.298 5.832-11.067 1.034-.767 6.618-3.66 6.618-3.66l3.225 6.054Z" clip-rule="evenodd"/>
  <path fill="#22343D" fill-rule="evenodd" d="m156.563 202.827 23.657-13.71s.939 47.626-4.74 57.923c-5.679 10.298-45.76 16.822-45.76 16.822l-2.702-6.403s24.728-14.734 32.32-17.617c7.593-2.885-2.775-37.015-2.775-37.015Z" clip-rule="evenodd"/>
  <path fill="#22343D" fill-rule="evenodd" d="M170.652 179.739s-17.418 6.167-14.088 23.089c3.329 16.92 8.879 20.092 8.879 20.092l9.99-16.391 10.029-21.466-10.029-1.272-4.781-4.052Z" clip-rule="evenodd"/>
  <path fill="#F03E3D" fill-rule="evenodd" d="M178.95 140.57s12.825 7.187 12.825 23.427c0 0-1.63 18.516-4.27 22.561 0 0-4.292 1.048-9.644 0-5.611-1.099-11.041-5.042-11.041-5.042l-4.382-22.669-3.41-13.235 1.849-.61 9.645-1.059s-1.386 14.408 9.384 7.253c2.268-1.507-2.824-9.02-2.824-9.02l1.868-1.606ZM186.8 79.2l26.888 15.685 15.126-28.57-25.209-14.005L186.8 79.2Z" clip-rule="evenodd"/>
  <path fill="#02897A" fill-rule="evenodd" d="m224.207 215.961 19.231-11.905-15.888-27.733-17.579 11.4 14.236 28.238Z" clip-rule="evenodd"/>
  <path fill="#740A76" fill-rule="evenodd" d="m140.564 58.826 9.706-5.947-8.019-13.856-8.872 5.695 7.185 14.108Z" clip-rule="evenodd"/>
  <path fill="#22343D" fill-rule="evenodd" d="M129.52 97.786c.051-.045.644.493 1.583 1.593a32.603 32.603 0 0 1 3.491 5.033c1.285 2.249 2.556 5.103 3.464 8.416.94 3.288 1.57 6.984 3.014 10.544.75 1.759 1.659 3.397 2.741 4.844a26.302 26.302 0 0 0 3.547 3.801c2.546 2.143 5.214 3.617 7.591 4.468 2.374.864 4.408 1.251 5.822 1.39 1.413.156 2.212.179 2.212.272.004.058-.792.179-2.242.152-1.45-.011-3.561-.288-6.046-1.085-2.488-.786-5.298-2.24-7.985-4.43a26.19 26.19 0 0 1-3.753-3.926c-1.145-1.506-2.111-3.228-2.896-5.072-1.505-3.721-2.1-7.45-2.975-10.695a39.1 39.1 0 0 0-3.172-8.311 43.237 43.237 0 0 0-3.148-5.142c-.826-1.166-1.31-1.797-1.248-1.852ZM162.555 79.435c.198-.03.39 2.616 1.871 6.531.74 1.95 1.84 4.194 3.42 6.443a31.295 31.295 0 0 0 2.727 3.341c1.021 1.11 2.134 2.239 3.185 3.504 2.109 2.553 3.56 5.312 4.926 7.748 1.356 2.46 2.436 4.799 2.985 6.892.573 2.087.607 3.883.425 5.074-.19 1.197-.487 1.803-.536 1.787-.095-.025.059-.665.113-1.825.047-1.158-.101-2.845-.741-4.817-.619-1.981-1.733-4.212-3.122-6.62-1.411-2.406-2.875-5.11-4.889-7.543-1.011-1.218-2.108-2.341-3.136-3.48a30.418 30.418 0 0 1-2.766-3.492 27.498 27.498 0 0 1-3.317-6.753 24.406 24.406 0 0 1-1.107-4.936c-.136-1.185-.099-1.849-.038-1.854ZM170.799 131.371c-.01-.076.428-.146.841-.632.096-.112.192-.275.19-.37a.588.588 0 0 0-.197-.383.56.56 0 0 0-.457-.151c-.194.015-.429.111-.737.157-.675.089-1.201-.292-1.547-.6a5.454 5.454 0 0 1-.829-.95c-.403-.594-.529-1.023-.467-1.055.071-.038.314.317.769.816.227.247.514.531.852.805.333.266.741.508 1.148.444.216-.028.467-.129.774-.149a1.06 1.06 0 0 1 .849.327c.202.219.316.477.292.782-.06.313-.226.459-.363.595-.593.52-1.137.435-1.118.364Z" clip-rule="evenodd"/>
  <path fill="#fff" fill-rule="evenodd" d="m173.977 131.818-5.165 1.878s4.382 3.833 5.165-1.878Z" clip-rule="evenodd"/>
  <path fill="#FFB2A0" fill-rule="evenodd" d="M168.297 131.498c.207.392-.099.959-.682 1.266-.583.307-1.223.238-1.429-.154-.207-.391.099-.958.682-1.265.583-.307 1.223-.239 1.429.153ZM174.419 128.359c.169.41-.188.945-.797 1.196-.609.253-1.24.125-1.409-.285-.169-.409.188-.944.797-1.196.609-.251 1.24-.124 1.409.285Z" clip-rule="evenodd"/>
  <path fill="#FFA192" fill-rule="evenodd" d="M168.965 138.808s1.728.352 3.93-.198c0 0-1.086 1.054-2.86 1.3 0 0-.397-.735-1.07-1.102Z" clip-rule="evenodd"/>
  <path fill="#22343D" fill-rule="evenodd" d="M170.731 127.2a.459.459 0 1 1-.595.701.46.46 0 1 1 .595-.701ZM167.261 129.196a.462.462 0 0 1 .053.649.462.462 0 0 1-.649.053.462.462 0 0 1-.053-.649.462.462 0 0 1 .649-.053ZM170.751 125.279c-.046.147-.477.142-.951.285-.478.129-.84.362-.958.261-.121-.084.16-.601.808-.785.647-.187 1.159.102 1.101.239ZM164.756 128.899c-.116-.085.066-.579.507-1.073.446-.505 1.017-.673 1.077-.532.064.137-.284.457-.675.901-.397.442-.784.799-.909.704Z" clip-rule="evenodd"/>
  <path fill="#FFC6B2" fill-rule="evenodd" d="M162.809 132.734s-1.657-1.391-2.452-.133c-.794 1.259 3.578 1.922 3.578 1.922l-1.126-1.789Z" clip-rule="evenodd"/>
  <path fill="#22343D" fill-rule="evenodd" d="M122.982 259.595s-2.375 1.032-2.994 1.652c-.619.619-6.298 10.427-5.575 11.666.723 1.239 6.417-2.967 6.417-2.967s-4.765.903 2.152-10.351ZM169.318 272.564s-1.687 1.823-1.947 2.661c-.26.835-.726 12.159.491 12.919 1.215.762 4.539-5.487 4.539-5.487s-3.973 3.113-3.083-10.067" clip-rule="evenodd"/>
</svg>
